<svg width="48" height="48" viewBox="0 0 48 48" fill="none" xmlns="http://www.w3.org/2000/svg">
<path fill-rule="evenodd" clip-rule="evenodd" d="M8.85074 12.0055L9 12H39C40.1046 12 41 12.8954 41 14C41 15.0544 40.1841 15.9182 39.1493 15.9945L39 16H38V35.7397C38 39.127 35.2855 41.8754 31.9055 41.9959L31.674 42H16.326C12.9161 42 10.1265 39.3271 10.0042 35.9696L10 35.7397V16H9C7.89543 16 7 15.1046 7 14C7 12.9456 7.81588 12.0818 8.85074 12.0055ZM34 16H14V35.7397C14 36.8779 14.8691 37.8287 16.0089 37.9792L16.1659 37.9948L16.326 38H31.674C32.9114 38 33.9133 37.0641 33.9947 35.8936L34 35.7397V16ZM20 20C21.0544 20 21.9182 20.8159 21.9945 21.8507L22 22V32C22 33.1046 21.1046 34 20 34C18.9456 34 18.0818 33.1841 18.0055 32.1493L18 32V22C18 20.8954 18.8954 20 20 20ZM28 20C29.0544 20 29.9182 20.8159 29.9945 21.8507L30 22V32C30 33.1046 29.1046 34 28 34C26.9456 34 26.0818 33.1841 26.0055 32.1493L26 32V22C26 20.8954 26.8954 20 28 20ZM31 6C32.1046 6 33 6.89543 33 8C33 9.05436 32.1841 9.91817 31.1493 9.99451L31 10H17C15.8954 10 15 9.10457 15 8C15 6.94564 15.8159 6.08183 16.8507 6.00549L17 6H31Z" fill="#333333"/>
</svg>
