<svg width="48" height="48" viewBox="0 0 48 48" fill="none" xmlns="http://www.w3.org/2000/svg">
<path fill-rule="evenodd" clip-rule="evenodd" d="M24.4302 8C27.9928 8 31.3735 9.18988 34.1165 11.3229L34.464 11.602L34.6844 11.546C38.6946 10.5576 41.4323 11.0569 43.1031 13.4244L43.2328 13.6152C45.0308 16.3612 43.7254 19.2708 40.3706 22.2192L40.218 22.35L40.2635 22.8493C40.277 23.0401 40.2871 23.2315 40.2939 23.4233L40.304 24C40.304 32.8325 33.2011 40 24.4302 40C20.4145 40 16.7486 38.4976 13.9538 36.0209L13.794 35.877L13.5494 35.9415C8.91429 37.1411 5.63235 36.7026 4.37711 33.6934L4.29644 33.489C3.4296 31.1642 4.21412 29.2549 6.71293 26.7259L7.17171 26.273L7.66615 25.8059C7.75154 25.7268 7.83841 25.6471 7.92677 25.5667L8.58503 24.979L8.58389 24.951C8.57169 24.7412 8.5635 24.5304 8.55939 24.3185L8.55631 24C8.55631 15.1675 15.6592 8 24.4302 8ZM36.236 25.278L35.9981 25.433C34.1288 26.6303 31.9409 27.8764 29.4499 29.175L28.1792 29.8287L26.8451 30.4983L25.5192 31.1499C23.1297 32.3111 20.9657 33.2886 19.008 34.0799L18.382 34.329L18.6022 34.4574C20.2422 35.3929 22.124 35.9457 24.1286 35.9962L24.4302 36C30.4797 36 35.4782 31.4256 36.2114 25.506L36.236 25.278ZM9.60774 29.7379L9.54003 29.555L9.41805 29.6805C8.21512 30.9244 7.87693 31.6424 8.04437 32.0915C8.20063 32.5105 9.04037 32.7199 10.7324 32.4562L10.931 32.423L10.9258 32.4137C10.4078 31.5706 9.96522 30.6755 9.60774 29.7379ZM24.4302 12C17.8765 12 12.5563 17.3686 12.5563 24C12.5563 26.6526 13.4075 29.1031 14.8484 31.0888L15.014 31.311L15.3295 31.202C16.681 30.7214 18.1743 30.1179 19.8137 29.3937L20.9284 28.8931C21.1178 28.8067 21.309 28.7189 21.502 28.6295L22.682 28.0756C23.0827 27.885 23.4907 27.6886 23.9061 27.4863L25.1743 26.8619L25.7315 26.5836L26.8258 26.0279C27.5416 25.6599 28.2298 25.2969 28.89 24.9397L29.8592 24.4083C30.1753 24.2327 30.4843 24.0587 30.7862 23.8862L31.6707 23.3738C31.9584 23.2047 32.2389 23.0373 32.5123 22.8717L33.3108 22.3805C33.4403 22.2996 33.5679 22.2191 33.6938 22.1391L34.427 21.6652C35.0198 21.2753 35.567 20.8981 36.0677 20.535L36.659 20.096L36.7162 20.0395C36.8185 19.9436 36.9312 19.8581 37.0531 19.7848L37.084 19.767L37.2721 19.6178C39.3855 17.9173 40.302 16.6083 39.9255 15.8736L39.8864 15.8064C39.3791 15.0318 38.2857 14.7914 35.9252 15.3548L35.3998 15.488C35.3089 15.5122 35.2163 15.5376 35.1221 15.564L34.5356 15.7351C33.846 15.9441 33.0972 15.766 32.5756 15.2687C30.3853 13.1809 27.5016 12 24.4302 12Z" fill="#333333"/>
</svg>
