<svg width="48" height="48" viewBox="0 0 48 48" fill="none" xmlns="http://www.w3.org/2000/svg">
<path d="M18 22C20.7614 22 23 24.2386 23 27V37C23 39.7614 20.7614 42 18 42H11C8.23858 42 6 39.7614 6 37V27C6 24.2386 8.23858 22 11 22H18ZM37 28C39.7614 28 42 30.2386 42 33V37C42 39.7614 39.7614 42 37 42H30C27.2386 42 25 39.7614 25 37V33C25 30.2386 27.2386 28 30 28H37ZM11 26C10.4477 26 10 26.4477 10 27V37C10 37.5523 10.4477 38 11 38H18C18.5523 38 19 37.5523 19 37V27C19 26.4477 18.5523 26 18 26H11ZM30 32C29.4477 32 29 32.4477 29 33V37C29 37.5523 29.4477 38 30 38H37C37.5523 38 38 37.5523 38 37V33C38 32.4477 37.5523 32 37 32H30ZM37 6C39.7614 6 42 8.23858 42 11V21C42 23.7614 39.7614 26 37 26H30C27.2386 26 25 23.7614 25 21V11C25 8.23858 27.2386 6 30 6H37ZM30 10C29.4477 10 29 10.4477 29 11V21C29 21.5523 29.4477 22 30 22H37C37.5523 22 38 21.5523 38 21V11C38 10.4477 37.5523 10 37 10H30ZM18 6C20.7614 6 23 8.23858 23 11V15C23 17.7614 20.7614 20 18 20H11C8.23858 20 6 17.7614 6 15V11C6 8.23858 8.23858 6 11 6H18ZM11 10C10.4477 10 10 10.4477 10 11V15C10 15.5523 10.4477 16 11 16H18C18.5523 16 19 15.5523 19 15V11C19 10.4477 18.5523 10 18 10H11Z" fill="#333333"/>
</svg>
