<svg width="48" height="48" viewBox="0 0 48 48" fill="none" xmlns="http://www.w3.org/2000/svg">
<path d="M29.5259 17.9623C30.4824 17.4103 31.7061 17.7382 32.2583 18.6947C32.8102 19.6511 32.482 20.8738 31.5259 21.4261L26.0337 24.5961V31.5345C26.0337 32.6391 25.1383 33.5345 24.0337 33.5345C22.9293 33.5344 22.0337 32.639 22.0337 31.5345V24.5961L16.5415 21.4261C15.5855 20.8737 15.2581 19.651 15.8101 18.6947C16.3622 17.7383 17.585 17.4105 18.5415 17.9623L24.0337 21.1322L29.5259 17.9623Z" fill="#333333"/>
<path fill-rule="evenodd" clip-rule="evenodd" d="M22.0005 4.54724C23.238 3.83278 24.7629 3.83283 26.0005 4.54724L39.8472 12.5414C41.0847 13.2559 41.8471 14.5763 41.8472 16.0052V31.9945C41.8471 33.4235 41.0847 34.7438 39.8472 35.4584L26.0005 43.4535C24.763 44.1678 23.238 44.1678 22.0005 43.4535L8.15283 35.4584C6.91562 34.7438 6.15285 33.4233 6.15283 31.9945V16.0052C6.15292 14.5765 6.9156 13.2559 8.15283 12.5414L22.0005 4.54724ZM10.1528 16.0052V31.9945L24.0005 39.9896L37.8472 31.9945V16.0052L24.0005 8.01111L10.1528 16.0052Z" fill="#333333"/>
</svg>
