<svg width="48" height="48" viewBox="0 0 48 48" fill="none" xmlns="http://www.w3.org/2000/svg">
<path fill-rule="evenodd" clip-rule="evenodd" d="M30.575 6.41154C32.7049 6.41154 34.6792 7.50411 35.8125 9.2935L35.9444 9.51154L42.5195 20.9C43.5809 22.7384 43.6251 24.9855 42.6522 26.858L42.5195 27.1L35.9444 38.4885C34.8795 40.333 32.9461 41.4965 30.8298 41.5832L30.575 41.5885H17.4248C15.2949 41.5885 13.3206 40.4959 12.1873 38.7065L12.0554 38.4885L5.4803 27.1C4.41892 25.2616 4.3747 23.0145 5.34763 21.142L5.4803 20.9L12.0554 9.51154C13.1204 7.66704 15.0537 6.50354 17.17 6.41676L17.4248 6.41154H30.575ZM30.575 10.4115H17.4248C16.6949 10.4115 16.0166 10.7731 15.6087 11.3697L15.5195 11.5115L8.9444 22.9C8.58164 23.5283 8.55374 24.2912 8.86069 24.9403L8.9444 25.1L15.5195 36.4885C15.8845 37.1205 16.5367 37.5272 17.2574 37.5821L17.4248 37.5885H30.575C31.3049 37.5885 31.9832 37.2269 32.3911 36.6303L32.4803 36.4885L39.0554 25.1C39.4182 24.4717 39.4461 23.7088 39.1391 23.0597L39.0554 22.9L32.4803 11.5115C32.1154 10.8795 31.4631 10.4728 30.7425 10.4179L30.575 10.4115ZM23.9999 17C27.8659 17 30.9999 20.134 30.9999 24C30.9999 27.866 27.8659 31 23.9999 31C20.1339 31 16.9999 27.866 16.9999 24C16.9999 20.134 20.1339 17 23.9999 17ZM23.9999 21C22.3431 21 20.9999 22.3431 20.9999 24C20.9999 25.6569 22.3431 27 23.9999 27C25.6568 27 26.9999 25.6569 26.9999 24C26.9999 22.3431 25.6568 21 23.9999 21Z" fill="#333333"/>
</svg>
