<svg width="48" height="48" viewBox="0 0 48 48" fill="none" xmlns="http://www.w3.org/2000/svg">
<path fill-rule="evenodd" clip-rule="evenodd" d="M24 5C34.4934 5 43 13.5066 43 24C43 34.4934 34.4934 43 24 43C13.5066 43 5 34.4934 5 24C5 13.5066 13.5066 5 24 5ZM24 9C15.7157 9 9 15.7157 9 24C9 32.2843 15.7157 39 24 39C32.2843 39 39 32.2843 39 24C39 15.7157 32.2843 9 24 9ZM30.9692 26.5844C31.9258 27.1367 32.2536 28.3599 31.7013 29.3165C29.4921 33.1428 24.5994 34.4538 20.7731 32.2447C19.8165 31.6924 19.4887 30.4692 20.041 29.5126C20.5682 28.5995 21.7067 28.2594 22.6411 28.7107L22.7731 28.7806C24.6283 29.8517 26.9848 29.2678 28.1331 27.4869L28.2372 27.3165C28.7895 26.3599 30.0126 26.0321 30.9692 26.5844ZM17.5 17C18.8807 17 20 18.1193 20 19.5C20 20.8807 18.8807 22 17.5 22C16.1193 22 15 20.8807 15 19.5C15 18.1193 16.1193 17 17.5 17ZM30.5 17C31.8807 17 33 18.1193 33 19.5C33 20.8807 31.8807 22 30.5 22C29.1193 22 28 20.8807 28 19.5C28 18.1193 29.1193 17 30.5 17Z" fill="#333333"/>
</svg>
