<svg width="19" height="19" viewBox="0 0 19 19" fill="none" xmlns="http://www.w3.org/2000/svg">
<path d="M13.8545 2.375C15.3845 2.37518 16.6248 3.61548 16.625 5.14551V13.8545C16.6248 15.3845 15.3845 16.6248 13.8545 16.625H5.14551C3.61548 16.6248 2.37518 15.3845 2.375 13.8545V5.14551C2.37518 3.61548 3.61548 2.37518 5.14551 2.375H13.8545ZM13.5752 6.92969C13.1887 6.54354 12.5621 6.54338 12.1758 6.92969L8.81738 10.2891L7.02148 8.49316C6.635 8.10706 6.00841 8.10683 5.62207 8.49316C5.23578 8.87951 5.23599 9.50611 5.62207 9.89258L7.97754 12.248C8.44129 12.7118 9.19348 12.7118 9.65723 12.248L13.5752 8.3291C13.9616 7.94264 13.9616 7.31613 13.5752 6.92969Z" fill="#3E4CC4"/>
</svg>
